<?xml version="1.0" encoding="UTF-8" standalone="no"?>
<!DOCTYPE svg PUBLIC "-//W3C//DTD SVG 1.1//EN" "http://www.w3.org/Graphics/SVG/1.1/DTD/svg11.dtd">
<svg version="1.1" xmlns="http://www.w3.org/2000/svg" xmlns:xlink="http://www.w3.org/1999/xlink" preserveAspectRatio="xMidYMid meet" viewBox="66.78571428571425 -1 576.2142857142858 573.5714285714284" width="550.71" height="550.07"><defs><path d="M535.29 99.29C540.81 99.29 545.29 103.76 545.29 109.29C545.29 197.44 545.29 451.91 545.29 540.07C545.29 545.59 540.81 550.07 535.29 550.07C446.09 550.07 188.49 550.07 99.29 550.07C93.76 550.07 89.29 545.59 89.29 540.07C89.29 451.91 89.29 197.44 89.29 109.29C89.29 103.76 93.76 99.29 99.29 99.29C188.49 99.29 446.09 99.29 535.29 99.29Z" id="a7p63p6P9"></path><path d="M581.68 239.15L640 0L402.81 65.84L459.51 120.78L302.81 282.51L368.43 346.09L525.13 184.36L581.68 239.15Z" id="a4v45qDmbF"></path></defs><g><g><g><use xlink:href="#a7p63p6P9" opacity="1" fill-opacity="0" stroke="#f9f5f4" stroke-width="45" stroke-opacity="1"></use></g></g><g><use xlink:href="#a4v45qDmbF" opacity="1" fill="#f9f5f4" fill-opacity="1"></use></g></g></svg>