<svg xmlns="http://www.w3.org/2000/svg" viewBox="0 0 285.61 30"><defs><style>.cls-1{fill:#231f20;}</style></defs><g id="Layer_2" data-name="Layer 2"><g id="Layer_1-2" data-name="Layer 1"><polygon class="cls-1" points="25.26 0.47 18.2 18.64 11.08 0.47 5.45 0.47 0 29.54 5.81 29.54 9.26 11.33 15.99 29.54 20.35 29.54 27.07 11.33 30.53 29.54 36.51 29.54 30.89 0.47 25.26 0.47"/><rect class="cls-1" x="37.97" y="0.47" width="5.45" height="29.07"/><polygon class="cls-1" points="45.2 5.19 51.59 5.19 51.59 29.54 57 29.54 57 5.19 63.4 5.19 63.4 0.47 45.2 0.47 45.2 5.19"/><path class="cls-1" d="M79.72,16.85a9,9,0,0,0,4-2.43,7.43,7.43,0,0,0,2-5.6,7.58,7.58,0,0,0-1.81-5.44A8.7,8.7,0,0,0,80.19,1,11.14,11.14,0,0,0,77.58.47H64.64V29.54h5.45V5.37h6.36a4,4,0,0,1,2.76,1,3.32,3.32,0,0,1,1,2.5A3.11,3.11,0,0,1,79,11.44a3.78,3.78,0,0,1-2.26.83h-.29l-5.41,0v5.23l8.86,12h6.55L76.78,17.4A12.28,12.28,0,0,0,79.72,16.85Z"/><polygon class="cls-1" points="87.17 29.54 103.99 29.54 103.99 24.82 92.62 24.82 92.62 17.36 103.89 17.36 103.89 12.64 92.62 12.64 92.62 5.19 103.99 5.19 103.99 0.47 87.17 0.47 87.17 29.54"/><path class="cls-1" d="M151,.55,139.11,29.46h5l2.66-6.84h12.34l2.74,6.84h5L155.17.55Zm-3,18.36,4.88-13,5,13Z"/><polygon class="cls-1" points="162.94 4.61 169.58 4.61 169.58 29.46 174.19 29.46 174.19 4.61 180.83 4.61 180.83 0.55 162.94 0.55 162.94 4.61"/><polygon class="cls-1" points="200.08 0.55 182.19 0.55 182.19 4.61 188.83 4.61 188.83 29.46 193.44 29.46 193.44 4.61 200.08 4.61 200.08 0.55"/><path class="cls-1" d="M224.3,11.92H220l-3.4,6.68-5-5.08c2.18-1.17,5.15-2.89,5.15-6.76A6.86,6.86,0,0,0,209.69,0a7,7,0,0,0-7.15,6.88c.08,2.5,1.37,4.37,3.32,6.44-2.57,1.37-6.4,3.79-6.4,8.44,0,4.38,3.55,8.24,9.26,8.24,4.65,0,6.87-2.34,8.43-5.35L222.31,30l2.81-2.74-5.78-5.9ZM209.69,3.44h0A3.22,3.22,0,0,1,213,6.72c0,2.19-1.4,3.16-3.79,4.49-1.13-1.21-2.65-2.58-2.65-4.57A3.12,3.12,0,0,1,209.69,3.44Zm-.82,22.66a4.74,4.74,0,0,1-5-4.69c0-2.11,1.29-3.95,4.49-5.55l6,6.14C213.13,24.5,211.76,26.1,208.87,26.1Z"/><path class="cls-1" d="M241,4.06a10.24,10.24,0,0,1,9,5.43h4.88A14.69,14.69,0,0,0,241,0a14.84,14.84,0,0,0-15.08,15,14.91,14.91,0,0,0,15.12,15,14.33,14.33,0,0,0,13.72-9.33h-4.85A10.38,10.38,0,0,1,241,25.94c-6.09,0-10.47-5-10.47-11C230.55,9.1,234.85,4.06,241,4.06Z"/><polygon class="cls-1" points="277.16 0.55 272.27 0.55 261.69 14.22 261.69 0.55 257.08 0.55 257.08 29.46 261.69 29.46 261.69 16.14 272.63 29.46 278.29 29.46 265.91 14.96 277.16 0.55"/><rect class="cls-1" x="121.01" y="0.17" width="0.75" height="29.66"/><rect class="cls-1" x="121.01" y="0.17" width="0.75" height="29.66"/><path class="cls-1" d="M282.42.26a3.22,3.22,0,1,1-3.23,3.22A3.21,3.21,0,0,1,282.42.26Zm0,.54a2.63,2.63,0,0,0-2.63,2.68,2.63,2.63,0,1,0,5.26,0A2.64,2.64,0,0,0,282.41.8Z"/><path class="cls-1" d="M283.84,2.69c0-.74-.45-1.07-1.35-1.07h-1.41v3.6h.71V3.69h.45l.81,1.53h.79L283,3.65A.87.87,0,0,0,283.84,2.69Zm-1.4.44h-.65V2.18h.62c.46,0,.7.1.7.45S282.89,3.13,282.44,3.13Z"/></g></g></svg>