<svg xmlns="http://www.w3.org/2000/svg" viewBox="0 0 288 108.7"><defs><style>.cls-1{fill:#fff;}.cls-2{fill:#c03;}</style></defs><title>LOGO_STIX</title><g id="STIX"><rect class="cls-1" x="2.08" y="2.1" width="283.84" height="104.5" rx="9.41" ry="9.41"/><path class="cls-2" d="M280.16,113.85H15A11.51,11.51,0,0,1,3.6,102.3V16.71A11.51,11.51,0,0,1,15,5.15H280.16A11.51,11.51,0,0,1,291.6,16.71V102.3A11.51,11.51,0,0,1,280.16,113.85ZM15,9.35a7.33,7.33,0,0,0-7.28,7.35V102.3A7.32,7.32,0,0,0,15,109.65H280.16a7.32,7.32,0,0,0,7.28-7.35V16.71a7.33,7.33,0,0,0-7.28-7.35Z" transform="translate(-3.6 -5.15)"/><path d="M110.1,97.58A2.15,2.15,0,0,1,108,95.43V43.51a2.15,2.15,0,0,0-2.14-2.14H88.91a2.15,2.15,0,0,1-2.14-2.14V23.42a2.15,2.15,0,0,1,2.14-2.14h61.74a2.15,2.15,0,0,1,2.14,2.14V39.23a2.15,2.15,0,0,1-2.14,2.14h-16.9a2.15,2.15,0,0,0-2.14,2.14V95.43a2.15,2.15,0,0,1-2.15,2.15Z" transform="translate(-3.6 -5.15)"/><rect x="154.3" y="16.12" width="22.79" height="76.3" rx="2.14" ry="2.14"/><path d="M241.94,58.86a3.59,3.59,0,0,0,0,3.59l21.63,33.32c.64,1,.2,1.8-1,1.8H239.85a4.42,4.42,0,0,1-3.31-1.8l-8.12-12.51a1.29,1.29,0,0,0-2.34,0L218,95.78a4.42,4.42,0,0,1-3.31,1.8H191.9c-1.18,0-1.62-.81-1-1.8l21.64-33.32a3.59,3.59,0,0,0,0-3.59L189.32,23.07c-.64-1-.2-1.8,1-1.8H213a4.42,4.42,0,0,1,3.31,1.8l9.73,15a1.29,1.29,0,0,0,2.34,0l9.73-15a4.42,4.42,0,0,1,3.31-1.8H264.2c1.18,0,1.62.81,1,1.8Z" transform="translate(-3.6 -5.15)"/><polygon class="cls-2" points="230.28 55.51 254.26 92.43 240.99 92.43 223.65 65.72 206.31 92.43 193.04 92.43 217.02 55.51 191.44 16.12 204.71 16.12 223.65 45.3 242.59 16.12 255.87 16.12 230.28 55.51"/><polygon points="265.99 22.28 265.99 16.76 264.42 16.76 264.42 16.12 268.17 16.12 268.17 16.76 266.7 16.76 266.7 22.28 265.99 22.28"/><polygon points="272.93 22.28 272.93 16.47 271.42 22.28 270.76 22.28 269.32 16.47 269.32 22.28 268.65 22.28 268.65 16.12 269.81 16.12 271.11 21.38 272.46 16.12 273.6 16.12 273.6 22.28 272.93 22.28"/><path d="M85.88,73.48q0,12.64-8.83,19.43T51.75,99.7q-15.18,0-24.06-6.78A25.05,25.05,0,0,1,18,76.43h0c0-.07,0-.13,0-.2A1.94,1.94,0,0,1,18,76a2.17,2.17,0,0,1,2.1-2.17H40a2.17,2.17,0,0,1,2,1.37l.06.19a8.77,8.77,0,0,0,3.11,4.4q2.59,1.82,7.72,1.81a13.19,13.19,0,0,0,6.76-1.48A4.55,4.55,0,0,0,62.06,76q0-4.14-10.31-6.73l-3.16-.78q-8.44-2.17-13.44-4a34,34,0,0,1-7.28-3.34,20.57,20.57,0,0,1-6.6-7.56,22.09,22.09,0,0,1-2.2-10q0-11.35,8.55-17.82T51.12,19.3q14.71,0,23.16,6.19a23,23,0,0,1,9.17,15.1l0,.16a2.1,2.1,0,0,1,0,.31,2.17,2.17,0,0,1-2.05,2.17H62.05a2.18,2.18,0,0,1-1.82-1.32c0-.1-.07-.2-.1-.31h0a6.76,6.76,0,0,0-2.56-3.4,12,12,0,0,0-6.86-1.66,10.62,10.62,0,0,0-5.86,1.3,4.42,4.42,0,0,0-1.91,3.94q0,3.78,10,6.32c.59.18,1,.3,1.35.36l4.41,1.09q13.31,3.37,17.4,6.11a22,22,0,0,1,7.41,7.67A21,21,0,0,1,85.88,73.48Z" transform="translate(-3.6 -5.15)"/></g></svg>